<mxfile host="app.diagrams.net" modified="2023-09-13T01:57:44.355Z" agent="Mozilla/5.0 (X11; Linux x86_64) AppleWebKit/537.36 (KHTML, like Gecko) Chrome/116.0.0.0 Safari/537.36" etag="2HXjTnpo9MP6rd3Jx8tc" version="21.6.9" type="device" pages="2">
  <diagram name="endpoints-map" id="2c0d36ab-eaac-3732-788b-9136903baeff">
    <mxGraphModel dx="2856.5" dy="580" grid="1" gridSize="10" guides="1" tooltips="1" connect="1" arrows="0" fold="1" page="1" pageScale="1.5" pageWidth="1169" pageHeight="827" background="none" math="0" shadow="0">
      <root>
        <mxCell id="0" />
        <mxCell id="1" parent="0" />
        <mxCell id="FMw90j4V7oVWt1J_6NKN-136" style="edgeStyle=orthogonalEdgeStyle;rounded=0;orthogonalLoop=1;jettySize=auto;html=1;" parent="1" source="FMw90j4V7oVWt1J_6NKN-123" target="FMw90j4V7oVWt1J_6NKN-126" edge="1">
          <mxGeometry relative="1" as="geometry">
            <Array as="points">
              <mxPoint x="685" y="130" />
              <mxPoint x="495" y="130" />
            </Array>
          </mxGeometry>
        </mxCell>
        <mxCell id="FMw90j4V7oVWt1J_6NKN-141" style="edgeStyle=orthogonalEdgeStyle;rounded=0;orthogonalLoop=1;jettySize=auto;html=1;" parent="1" source="FMw90j4V7oVWt1J_6NKN-123" target="FMw90j4V7oVWt1J_6NKN-139" edge="1">
          <mxGeometry relative="1" as="geometry">
            <Array as="points">
              <mxPoint x="685" y="130" />
              <mxPoint x="845" y="130" />
            </Array>
          </mxGeometry>
        </mxCell>
        <mxCell id="FMw90j4V7oVWt1J_6NKN-183" style="edgeStyle=orthogonalEdgeStyle;rounded=0;orthogonalLoop=1;jettySize=auto;html=1;exitX=0.5;exitY=1;exitDx=0;exitDy=0;entryX=0.5;entryY=0;entryDx=0;entryDy=0;" parent="1" source="FMw90j4V7oVWt1J_6NKN-123" target="FMw90j4V7oVWt1J_6NKN-182" edge="1">
          <mxGeometry relative="1" as="geometry">
            <Array as="points">
              <mxPoint x="685" y="130" />
              <mxPoint x="1485" y="130" />
            </Array>
          </mxGeometry>
        </mxCell>
        <mxCell id="FMw90j4V7oVWt1J_6NKN-123" value="/" style="rounded=1;whiteSpace=wrap;html=1;" parent="1" vertex="1">
          <mxGeometry x="660" y="80" width="50" height="30" as="geometry" />
        </mxCell>
        <mxCell id="FMw90j4V7oVWt1J_6NKN-134" style="edgeStyle=orthogonalEdgeStyle;rounded=0;orthogonalLoop=1;jettySize=auto;html=1;entryX=0.5;entryY=0;entryDx=0;entryDy=0;exitX=0.5;exitY=1;exitDx=0;exitDy=0;fillColor=#fff2cc;strokeColor=#d6b656;" parent="1" source="FMw90j4V7oVWt1J_6NKN-126" target="FMw90j4V7oVWt1J_6NKN-131" edge="1">
          <mxGeometry relative="1" as="geometry">
            <Array as="points">
              <mxPoint x="495" y="200" />
              <mxPoint x="130" y="200" />
            </Array>
          </mxGeometry>
        </mxCell>
        <mxCell id="FMw90j4V7oVWt1J_6NKN-135" style="edgeStyle=orthogonalEdgeStyle;rounded=0;orthogonalLoop=1;jettySize=auto;html=1;fillColor=#fff2cc;strokeColor=#d6b656;" parent="1" source="FMw90j4V7oVWt1J_6NKN-126" target="FMw90j4V7oVWt1J_6NKN-127" edge="1">
          <mxGeometry relative="1" as="geometry">
            <Array as="points">
              <mxPoint x="495" y="200" />
              <mxPoint x="383" y="200" />
            </Array>
          </mxGeometry>
        </mxCell>
        <mxCell id="FMw90j4V7oVWt1J_6NKN-163" style="edgeStyle=orthogonalEdgeStyle;rounded=0;orthogonalLoop=1;jettySize=auto;html=1;exitX=0.5;exitY=1;exitDx=0;exitDy=0;fillColor=#fff2cc;strokeColor=#d6b656;" parent="1" source="FMw90j4V7oVWt1J_6NKN-126" target="FMw90j4V7oVWt1J_6NKN-162" edge="1">
          <mxGeometry relative="1" as="geometry">
            <Array as="points">
              <mxPoint x="495" y="200" />
              <mxPoint x="-10" y="200" />
              <mxPoint x="-10" y="595" />
            </Array>
          </mxGeometry>
        </mxCell>
        <mxCell id="FMw90j4V7oVWt1J_6NKN-126" value="/raw" style="rounded=1;whiteSpace=wrap;html=1;fontFamily=Courier New;fillColor=#fff2cc;strokeColor=#d6b656;" parent="1" vertex="1">
          <mxGeometry x="460" y="160" width="70" height="20" as="geometry" />
        </mxCell>
        <mxCell id="FMw90j4V7oVWt1J_6NKN-138" style="edgeStyle=orthogonalEdgeStyle;rounded=0;orthogonalLoop=1;jettySize=auto;html=1;fillColor=#fff2cc;strokeColor=#d6b656;" parent="1" source="FMw90j4V7oVWt1J_6NKN-127" target="FMw90j4V7oVWt1J_6NKN-137" edge="1">
          <mxGeometry relative="1" as="geometry" />
        </mxCell>
        <mxCell id="FMw90j4V7oVWt1J_6NKN-127" value="&lt;font face=&quot;Courier New&quot;&gt;/articles&lt;br&gt;&lt;br&gt;Params:&lt;br&gt;&lt;ul&gt;&lt;li&gt;&lt;font face=&quot;Courier New&quot;&gt;&lt;b&gt;newspaper&lt;/b&gt;&lt;/font&gt;&lt;/li&gt;&lt;li&gt;&lt;b&gt;startDate&lt;/b&gt;&lt;/li&gt;&lt;li&gt;&lt;b&gt;endDate&lt;/b&gt;&lt;/li&gt;&lt;li&gt;limit&lt;/li&gt;&lt;li&gt;offset&lt;/li&gt;&lt;/ul&gt;&lt;/font&gt;" style="rounded=1;whiteSpace=wrap;html=1;align=left;horizontal=1;verticalAlign=top;spacing=10;fillColor=#fff2cc;strokeColor=#000000;strokeWidth=2;" parent="1" vertex="1">
          <mxGeometry x="310" y="230" width="130" height="150" as="geometry" />
        </mxCell>
        <mxCell id="FMw90j4V7oVWt1J_6NKN-130" value="object:&lt;br&gt;&lt;ul&gt;&lt;li&gt;id&lt;/li&gt;&lt;li&gt;newspaper&lt;/li&gt;&lt;li&gt;title&lt;/li&gt;&lt;li&gt;url&lt;/li&gt;&lt;li&gt;content_length&lt;/li&gt;&lt;li&gt;description&lt;/li&gt;&lt;li&gt;authors: []&lt;/li&gt;&lt;li&gt;categories: []&lt;/li&gt;&lt;li&gt;date_published&lt;/li&gt;&lt;/ul&gt;" style="shape=document;whiteSpace=wrap;html=1;boundedLbl=1;align=left;spacing=10;fontFamily=Courier New;size=0.1;fillColor=#fff2cc;strokeColor=#000000;strokeWidth=2;" parent="1" vertex="1">
          <mxGeometry x="9.38" y="310" width="241.25" height="190" as="geometry" />
        </mxCell>
        <mxCell id="FMw90j4V7oVWt1J_6NKN-132" style="edgeStyle=orthogonalEdgeStyle;rounded=0;orthogonalLoop=1;jettySize=auto;html=1;entryX=0.5;entryY=0;entryDx=0;entryDy=0;fillColor=#fff2cc;strokeColor=#d6b656;" parent="1" source="FMw90j4V7oVWt1J_6NKN-131" target="FMw90j4V7oVWt1J_6NKN-130" edge="1">
          <mxGeometry relative="1" as="geometry" />
        </mxCell>
        <mxCell id="FMw90j4V7oVWt1J_6NKN-131" value="&lt;font face=&quot;Courier New&quot;&gt;/article/{id}&lt;br&gt;&lt;/font&gt;" style="rounded=1;whiteSpace=wrap;html=1;align=left;horizontal=1;verticalAlign=top;spacing=10;fillColor=#fff2cc;strokeColor=#000000;strokeWidth=2;" parent="1" vertex="1">
          <mxGeometry x="40" y="230" width="180" height="40" as="geometry" />
        </mxCell>
        <mxCell id="FMw90j4V7oVWt1J_6NKN-137" value="&lt;ul&gt;&lt;li&gt;total&lt;/li&gt;&lt;li&gt;limit&lt;/li&gt;&lt;li&gt;offset&lt;/li&gt;&lt;li&gt;articles: [&lt;/li&gt;&lt;ul&gt;&lt;li&gt;id&lt;/li&gt;&lt;li&gt;title&lt;/li&gt;&lt;li&gt;date_published&lt;/li&gt;&lt;/ul&gt;&lt;li&gt;]&lt;/li&gt;&lt;/ul&gt;" style="shape=document;whiteSpace=wrap;html=1;boundedLbl=1;align=left;spacing=10;fontFamily=Courier New;size=0.17391304347826086;fillColor=#fff2cc;strokeColor=#000000;strokeWidth=2;" parent="1" vertex="1">
          <mxGeometry x="275" y="420" width="200" height="150" as="geometry" />
        </mxCell>
        <mxCell id="FMw90j4V7oVWt1J_6NKN-146" style="edgeStyle=orthogonalEdgeStyle;rounded=0;orthogonalLoop=1;jettySize=auto;html=1;entryX=0.5;entryY=0;entryDx=0;entryDy=0;fillColor=#dae8fc;strokeColor=#6c8ebf;" parent="1" source="FMw90j4V7oVWt1J_6NKN-139" target="FMw90j4V7oVWt1J_6NKN-140" edge="1">
          <mxGeometry relative="1" as="geometry">
            <Array as="points">
              <mxPoint x="845" y="200" />
              <mxPoint x="640" y="200" />
            </Array>
          </mxGeometry>
        </mxCell>
        <mxCell id="FMw90j4V7oVWt1J_6NKN-155" style="edgeStyle=orthogonalEdgeStyle;rounded=0;orthogonalLoop=1;jettySize=auto;html=1;exitX=0.5;exitY=1;exitDx=0;exitDy=0;fillColor=#dae8fc;strokeColor=#6c8ebf;" parent="1" source="FMw90j4V7oVWt1J_6NKN-139" target="FMw90j4V7oVWt1J_6NKN-147" edge="1">
          <mxGeometry relative="1" as="geometry" />
        </mxCell>
        <mxCell id="FMw90j4V7oVWt1J_6NKN-160" style="edgeStyle=orthogonalEdgeStyle;rounded=0;orthogonalLoop=1;jettySize=auto;html=1;exitX=0.5;exitY=1;exitDx=0;exitDy=0;fillColor=#dae8fc;strokeColor=#6c8ebf;" parent="1" source="FMw90j4V7oVWt1J_6NKN-139" target="FMw90j4V7oVWt1J_6NKN-157" edge="1">
          <mxGeometry relative="1" as="geometry">
            <Array as="points">
              <mxPoint x="845" y="200" />
              <mxPoint x="1045" y="200" />
            </Array>
          </mxGeometry>
        </mxCell>
        <mxCell id="FMw90j4V7oVWt1J_6NKN-179" style="edgeStyle=orthogonalEdgeStyle;rounded=0;orthogonalLoop=1;jettySize=auto;html=1;exitX=0.5;exitY=1;exitDx=0;exitDy=0;fillColor=#dae8fc;strokeColor=#6c8ebf;" parent="1" source="FMw90j4V7oVWt1J_6NKN-139" target="FMw90j4V7oVWt1J_6NKN-161" edge="1">
          <mxGeometry relative="1" as="geometry">
            <Array as="points">
              <mxPoint x="845" y="200" />
              <mxPoint x="1230" y="200" />
            </Array>
          </mxGeometry>
        </mxCell>
        <mxCell id="FMw90j4V7oVWt1J_6NKN-139" value="/info" style="rounded=1;whiteSpace=wrap;fontFamily=Courier New;fillColor=#dae8fc;strokeColor=#6c8ebf;" parent="1" vertex="1">
          <mxGeometry x="810" y="160" width="70" height="30" as="geometry" />
        </mxCell>
        <mxCell id="FMw90j4V7oVWt1J_6NKN-145" style="edgeStyle=orthogonalEdgeStyle;rounded=0;orthogonalLoop=1;jettySize=auto;html=1;fillColor=#dae8fc;strokeColor=#6c8ebf;" parent="1" source="FMw90j4V7oVWt1J_6NKN-140" target="FMw90j4V7oVWt1J_6NKN-143" edge="1">
          <mxGeometry relative="1" as="geometry" />
        </mxCell>
        <mxCell id="FMw90j4V7oVWt1J_6NKN-171" style="edgeStyle=orthogonalEdgeStyle;rounded=0;orthogonalLoop=1;jettySize=auto;html=1;entryX=0;entryY=0.75;entryDx=0;entryDy=0;fillColor=#dae8fc;strokeColor=#6c8ebf;" parent="1" target="FMw90j4V7oVWt1J_6NKN-169" edge="1">
          <mxGeometry relative="1" as="geometry">
            <mxPoint x="845" y="190" as="sourcePoint" />
            <Array as="points">
              <mxPoint x="845" y="200" />
              <mxPoint x="525" y="200" />
              <mxPoint x="525" y="610" />
            </Array>
          </mxGeometry>
        </mxCell>
        <mxCell id="FMw90j4V7oVWt1J_6NKN-140" value="&lt;font face=&quot;Courier New&quot;&gt;/newspaper&lt;br&gt;&lt;br&gt;Params:&lt;br&gt;&lt;ul&gt;&lt;li&gt;&lt;font face=&quot;Courier New&quot;&gt;&lt;b&gt;name&lt;/b&gt;&lt;/font&gt;&lt;/li&gt;&lt;li&gt;&lt;font face=&quot;Courier New&quot;&gt;startDate&lt;/font&gt;&lt;/li&gt;&lt;li&gt;&lt;font face=&quot;Courier New&quot;&gt;endDate&lt;/font&gt;&lt;/li&gt;&lt;/ul&gt;&lt;/font&gt;" style="rounded=1;whiteSpace=wrap;html=1;align=left;horizontal=1;verticalAlign=top;spacing=10;fillColor=#dae8fc;strokeColor=default;strokeWidth=2;" parent="1" vertex="1">
          <mxGeometry x="570" y="220" width="140" height="120" as="geometry" />
        </mxCell>
        <mxCell id="FMw90j4V7oVWt1J_6NKN-143" value="object:&lt;br&gt;&lt;ul&gt;&lt;li&gt;id&lt;/li&gt;&lt;li&gt;name&lt;/li&gt;&lt;li&gt;article_count&lt;/li&gt;&lt;li&gt;author_count&lt;/li&gt;&lt;li&gt;categories_count&lt;/li&gt;&lt;li&gt;categories: []&lt;/li&gt;&lt;li&gt;authors: []&lt;/li&gt;&lt;li&gt;newsAgencies: []&lt;/li&gt;&lt;/ul&gt;" style="shape=document;whiteSpace=wrap;html=1;boundedLbl=1;align=left;spacing=10;fontFamily=Courier New;size=0.1;fillColor=#dae8fc;strokeColor=default;strokeWidth=2;" parent="1" vertex="1">
          <mxGeometry x="545" y="380" width="190" height="190" as="geometry" />
        </mxCell>
        <mxCell id="FMw90j4V7oVWt1J_6NKN-156" style="edgeStyle=orthogonalEdgeStyle;rounded=0;orthogonalLoop=1;jettySize=auto;html=1;exitX=0.5;exitY=1;exitDx=0;exitDy=0;entryX=0.5;entryY=0;entryDx=0;entryDy=0;fillColor=#dae8fc;strokeColor=#6c8ebf;" parent="1" source="FMw90j4V7oVWt1J_6NKN-147" target="FMw90j4V7oVWt1J_6NKN-148" edge="1">
          <mxGeometry relative="1" as="geometry" />
        </mxCell>
        <mxCell id="FMw90j4V7oVWt1J_6NKN-167" style="edgeStyle=orthogonalEdgeStyle;rounded=0;orthogonalLoop=1;jettySize=auto;html=1;exitX=0;exitY=0.5;exitDx=0;exitDy=0;entryX=0.5;entryY=0;entryDx=0;entryDy=0;fillColor=#dae8fc;strokeColor=#6c8ebf;" parent="1" source="FMw90j4V7oVWt1J_6NKN-147" target="FMw90j4V7oVWt1J_6NKN-166" edge="1">
          <mxGeometry relative="1" as="geometry">
            <Array as="points">
              <mxPoint x="750" y="272" />
              <mxPoint x="750" y="640" />
              <mxPoint x="854" y="640" />
            </Array>
          </mxGeometry>
        </mxCell>
        <mxCell id="FMw90j4V7oVWt1J_6NKN-147" value="&lt;font face=&quot;Courier New&quot;&gt;/author/{name}&lt;br&gt;&lt;br&gt;Params:&lt;br&gt;&lt;ul&gt;&lt;li&gt;&lt;font face=&quot;Courier New&quot;&gt;maxPerPage&lt;/font&gt;&lt;/li&gt;&lt;/ul&gt;&lt;/font&gt;" style="rounded=1;whiteSpace=wrap;html=1;align=left;horizontal=1;verticalAlign=top;spacing=10;fillColor=#dae8fc;strokeColor=#6c8ebf;" parent="1" vertex="1">
          <mxGeometry x="778.75" y="223.75" width="131.25" height="96.25" as="geometry" />
        </mxCell>
        <mxCell id="FMw90j4V7oVWt1J_6NKN-148" value="object:&lt;br&gt;&lt;ul&gt;&lt;li&gt;&lt;span style=&quot;background-color: initial;&quot;&gt;numArticles&lt;/span&gt;&lt;br&gt;&lt;/li&gt;&lt;li&gt;numCategories&lt;/li&gt;&lt;li&gt;&lt;span style=&quot;background-color: initial;&quot;&gt;categories: []&lt;/span&gt;&lt;br&gt;&lt;/li&gt;&lt;li&gt;articles: [&lt;/li&gt;&lt;ul&gt;&lt;li&gt;id&lt;/li&gt;&lt;li&gt;title&lt;/li&gt;&lt;li&gt;date&lt;/li&gt;&lt;/ul&gt;&lt;li&gt;]&lt;/li&gt;&lt;li&gt;page&lt;/li&gt;&lt;/ul&gt;" style="shape=document;whiteSpace=wrap;html=1;boundedLbl=1;align=left;spacing=10;fontFamily=Courier New;size=0.1;fillColor=#dae8fc;strokeColor=#6c8ebf;" parent="1" vertex="1">
          <mxGeometry x="760" y="400" width="170" height="220" as="geometry" />
        </mxCell>
        <mxCell id="FMw90j4V7oVWt1J_6NKN-159" style="edgeStyle=orthogonalEdgeStyle;rounded=0;orthogonalLoop=1;jettySize=auto;html=1;exitX=0.5;exitY=1;exitDx=0;exitDy=0;fillColor=#dae8fc;strokeColor=#6c8ebf;" parent="1" source="FMw90j4V7oVWt1J_6NKN-157" target="FMw90j4V7oVWt1J_6NKN-158" edge="1">
          <mxGeometry relative="1" as="geometry" />
        </mxCell>
        <mxCell id="FMw90j4V7oVWt1J_6NKN-189" style="edgeStyle=orthogonalEdgeStyle;rounded=0;orthogonalLoop=1;jettySize=auto;html=1;exitX=0;exitY=0.5;exitDx=0;exitDy=0;entryX=0;entryY=0.5;entryDx=0;entryDy=0;fillColor=#dae8fc;strokeColor=#6c8ebf;" parent="1" source="FMw90j4V7oVWt1J_6NKN-157" target="FMw90j4V7oVWt1J_6NKN-175" edge="1">
          <mxGeometry relative="1" as="geometry">
            <Array as="points">
              <mxPoint x="950" y="270" />
              <mxPoint x="950" y="715" />
            </Array>
          </mxGeometry>
        </mxCell>
        <mxCell id="FMw90j4V7oVWt1J_6NKN-157" value="&lt;font face=&quot;Courier New&quot;&gt;/category/{name}&lt;br&gt;&lt;br&gt;Params:&lt;br&gt;&lt;ul&gt;&lt;li&gt;&lt;font face=&quot;Courier New&quot;&gt;maxPerPage&lt;/font&gt;&lt;/li&gt;&lt;/ul&gt;&lt;/font&gt;" style="rounded=1;whiteSpace=wrap;html=1;align=left;horizontal=1;verticalAlign=top;spacing=10;fillColor=#dae8fc;strokeColor=#6c8ebf;" parent="1" vertex="1">
          <mxGeometry x="977.5" y="220" width="132.5" height="100" as="geometry" />
        </mxCell>
        <mxCell id="FMw90j4V7oVWt1J_6NKN-158" value="object:&lt;br&gt;&lt;ul&gt;&lt;li&gt;numArticles&lt;/li&gt;&lt;li&gt;numCathegories&lt;/li&gt;&lt;li&gt;numAuthors&lt;/li&gt;&lt;li&gt;&lt;span style=&quot;background-color: initial;&quot;&gt;authors: []&lt;/span&gt;&lt;br&gt;&lt;/li&gt;&lt;li&gt;&lt;span style=&quot;background-color: initial;&quot;&gt;articles: [&lt;/span&gt;&lt;/li&gt;&lt;ul&gt;&lt;li&gt;&lt;span style=&quot;background-color: initial;&quot;&gt;id&lt;/span&gt;&lt;/li&gt;&lt;li&gt;&lt;span style=&quot;background-color: initial;&quot;&gt;title&lt;/span&gt;&lt;/li&gt;&lt;li&gt;&lt;span style=&quot;background-color: initial;&quot;&gt;date&lt;/span&gt;&lt;/li&gt;&lt;/ul&gt;&lt;li&gt;&lt;span style=&quot;background-color: initial;&quot;&gt;]&lt;/span&gt;&lt;/li&gt;&lt;li&gt;&lt;span style=&quot;background-color: initial;&quot;&gt;page&lt;/span&gt;&lt;/li&gt;&lt;/ul&gt;" style="shape=document;whiteSpace=wrap;html=1;boundedLbl=1;align=left;spacing=10;fontFamily=Courier New;size=0.1;fillColor=#dae8fc;strokeColor=#6c8ebf;" parent="1" vertex="1">
          <mxGeometry x="958.75" y="400" width="170" height="230" as="geometry" />
        </mxCell>
        <mxCell id="FMw90j4V7oVWt1J_6NKN-178" style="edgeStyle=orthogonalEdgeStyle;rounded=0;orthogonalLoop=1;jettySize=auto;html=1;exitX=0.5;exitY=1;exitDx=0;exitDy=0;fillColor=#dae8fc;strokeColor=#6c8ebf;" parent="1" source="FMw90j4V7oVWt1J_6NKN-161" target="FMw90j4V7oVWt1J_6NKN-177" edge="1">
          <mxGeometry relative="1" as="geometry" />
        </mxCell>
        <mxCell id="FMw90j4V7oVWt1J_6NKN-161" value="&lt;font face=&quot;Courier New&quot;&gt;/personSearch/{name}&lt;br&gt;&lt;br&gt;Params:&lt;br&gt;&lt;ul&gt;&lt;li&gt;name&lt;/li&gt;&lt;/ul&gt;&lt;/font&gt;" style="rounded=1;whiteSpace=wrap;html=1;align=left;horizontal=1;verticalAlign=top;spacing=10;fillColor=#dae8fc;strokeColor=#6c8ebf;" parent="1" vertex="1">
          <mxGeometry x="1150" y="221.88" width="160" height="98.12" as="geometry" />
        </mxCell>
        <mxCell id="FMw90j4V7oVWt1J_6NKN-165" style="edgeStyle=orthogonalEdgeStyle;rounded=0;orthogonalLoop=1;jettySize=auto;html=1;exitX=0.5;exitY=1;exitDx=0;exitDy=0;fillColor=#fff2cc;strokeColor=#d6b656;" parent="1" source="FMw90j4V7oVWt1J_6NKN-162" target="FMw90j4V7oVWt1J_6NKN-164" edge="1">
          <mxGeometry relative="1" as="geometry" />
        </mxCell>
        <mxCell id="FMw90j4V7oVWt1J_6NKN-162" value="&lt;font face=&quot;Courier New&quot;&gt;/articleSearch&lt;br&gt;&lt;br&gt;Params:&lt;br&gt;&lt;ul&gt;&lt;li&gt;&lt;font face=&quot;Courier New&quot;&gt;title&lt;/font&gt;&lt;/li&gt;&lt;/ul&gt;&lt;/font&gt;" style="rounded=1;whiteSpace=wrap;html=1;align=left;horizontal=1;verticalAlign=top;spacing=10;fillColor=#fff2cc;strokeColor=#d6b656;" parent="1" vertex="1">
          <mxGeometry x="9.38" y="520" width="180.62" height="90" as="geometry" />
        </mxCell>
        <mxCell id="FMw90j4V7oVWt1J_6NKN-164" value="object:&lt;br&gt;&lt;ul&gt;&lt;li style=&quot;border-color: var(--border-color);&quot;&gt;count&lt;/li&gt;&lt;li style=&quot;border-color: var(--border-color);&quot;&gt;page&lt;/li&gt;&lt;li style=&quot;border-color: var(--border-color);&quot;&gt;articles: [&lt;/li&gt;&lt;ul style=&quot;border-color: var(--border-color);&quot;&gt;&lt;li style=&quot;border-color: var(--border-color);&quot;&gt;id&lt;/li&gt;&lt;li style=&quot;border-color: var(--border-color);&quot;&gt;title&lt;/li&gt;&lt;li style=&quot;border-color: var(--border-color);&quot;&gt;date&lt;/li&gt;&lt;li style=&quot;border-color: var(--border-color);&quot;&gt;newspaper&lt;/li&gt;&lt;/ul&gt;&lt;li style=&quot;border-color: var(--border-color);&quot;&gt;]&lt;/li&gt;&lt;/ul&gt;" style="shape=document;whiteSpace=wrap;html=1;boundedLbl=1;align=left;spacing=10;fontFamily=Courier New;size=0.1;fillColor=#fff2cc;strokeColor=#d6b656;" parent="1" vertex="1">
          <mxGeometry x="29.3" y="650" width="190.7" height="170" as="geometry" />
        </mxCell>
        <mxCell id="FMw90j4V7oVWt1J_6NKN-173" style="edgeStyle=orthogonalEdgeStyle;rounded=0;orthogonalLoop=1;jettySize=auto;html=1;exitX=0.5;exitY=1;exitDx=0;exitDy=0;fillColor=#dae8fc;strokeColor=#6c8ebf;" parent="1" source="FMw90j4V7oVWt1J_6NKN-166" target="FMw90j4V7oVWt1J_6NKN-168" edge="1">
          <mxGeometry relative="1" as="geometry" />
        </mxCell>
        <mxCell id="FMw90j4V7oVWt1J_6NKN-166" value="&lt;font face=&quot;Courier New&quot;&gt;/authorSearch&lt;br&gt;&lt;br&gt;Params:&lt;br&gt;&lt;ul&gt;&lt;li&gt;&lt;font face=&quot;Courier New&quot;&gt;name&lt;/font&gt;&lt;/li&gt;&lt;/ul&gt;&lt;/font&gt;" style="rounded=1;whiteSpace=wrap;html=1;align=left;horizontal=1;verticalAlign=top;spacing=10;fillColor=#dae8fc;strokeColor=#6c8ebf;" parent="1" vertex="1">
          <mxGeometry x="778.75" y="670" width="150" height="90" as="geometry" />
        </mxCell>
        <mxCell id="FMw90j4V7oVWt1J_6NKN-168" value="object:&lt;br&gt;&lt;ul&gt;&lt;li style=&quot;border-color: var(--border-color);&quot;&gt;count&lt;/li&gt;&lt;li style=&quot;border-color: var(--border-color);&quot;&gt;authors: []&lt;/li&gt;&lt;/ul&gt;" style="shape=document;whiteSpace=wrap;html=1;boundedLbl=1;align=left;spacing=10;fontFamily=Courier New;size=0.1;fillColor=#dae8fc;strokeColor=#6c8ebf;" parent="1" vertex="1">
          <mxGeometry x="778.75" y="800" width="151.25" height="100" as="geometry" />
        </mxCell>
        <mxCell id="FMw90j4V7oVWt1J_6NKN-172" style="edgeStyle=orthogonalEdgeStyle;rounded=0;orthogonalLoop=1;jettySize=auto;html=1;exitX=0.5;exitY=1;exitDx=0;exitDy=0;fillColor=#dae8fc;strokeColor=#6c8ebf;" parent="1" source="FMw90j4V7oVWt1J_6NKN-169" target="FMw90j4V7oVWt1J_6NKN-170" edge="1">
          <mxGeometry relative="1" as="geometry" />
        </mxCell>
        <mxCell id="FMw90j4V7oVWt1J_6NKN-169" value="&lt;font face=&quot;Courier New&quot;&gt;/newspapers&lt;br&gt;&lt;/font&gt;" style="rounded=1;whiteSpace=wrap;html=1;align=left;horizontal=1;verticalAlign=top;spacing=10;fillColor=#dae8fc;strokeColor=#6c8ebf;strokeWidth=2;" parent="1" vertex="1">
          <mxGeometry x="545" y="580" width="125" height="40" as="geometry" />
        </mxCell>
        <mxCell id="FMw90j4V7oVWt1J_6NKN-170" value="object:&lt;br&gt;&lt;ul&gt;&lt;li style=&quot;border-color: var(--border-color);&quot;&gt;count&lt;/li&gt;&lt;li style=&quot;border-color: var(--border-color);&quot;&gt;newspapers: []&lt;/li&gt;&lt;/ul&gt;" style="shape=document;whiteSpace=wrap;html=1;boundedLbl=1;align=left;spacing=10;fontFamily=Courier New;size=0.1;fillColor=#dae8fc;strokeColor=#6c8ebf;strokeWidth=2;" parent="1" vertex="1">
          <mxGeometry x="521.25" y="660" width="172.5" height="80" as="geometry" />
        </mxCell>
        <mxCell id="FMw90j4V7oVWt1J_6NKN-174" style="edgeStyle=orthogonalEdgeStyle;rounded=0;orthogonalLoop=1;jettySize=auto;html=1;exitX=0.5;exitY=1;exitDx=0;exitDy=0;fillColor=#dae8fc;strokeColor=#6c8ebf;" parent="1" source="FMw90j4V7oVWt1J_6NKN-175" target="FMw90j4V7oVWt1J_6NKN-176" edge="1">
          <mxGeometry relative="1" as="geometry" />
        </mxCell>
        <mxCell id="FMw90j4V7oVWt1J_6NKN-175" value="&lt;font face=&quot;Courier New&quot;&gt;/categorySearch&lt;br&gt;&lt;br&gt;Params:&lt;br&gt;&lt;ul&gt;&lt;li&gt;&lt;font face=&quot;Courier New&quot;&gt;name&lt;/font&gt;&lt;/li&gt;&lt;/ul&gt;&lt;/font&gt;" style="rounded=1;whiteSpace=wrap;html=1;align=left;horizontal=1;verticalAlign=top;spacing=10;fillColor=#dae8fc;strokeColor=#6c8ebf;" parent="1" vertex="1">
          <mxGeometry x="977.5" y="670" width="150" height="90" as="geometry" />
        </mxCell>
        <mxCell id="FMw90j4V7oVWt1J_6NKN-176" value="object:&lt;br&gt;&lt;ul&gt;&lt;li style=&quot;border-color: var(--border-color);&quot;&gt;count&lt;/li&gt;&lt;li style=&quot;border-color: var(--border-color);&quot;&gt;categories: []&lt;/li&gt;&lt;/ul&gt;" style="shape=document;whiteSpace=wrap;html=1;boundedLbl=1;align=left;spacing=10;fontFamily=Courier New;size=0.1;fillColor=#dae8fc;strokeColor=#6c8ebf;" parent="1" vertex="1">
          <mxGeometry x="977.5" y="800" width="151.25" height="100" as="geometry" />
        </mxCell>
        <mxCell id="FMw90j4V7oVWt1J_6NKN-177" value="object:&lt;br&gt;&lt;ul&gt;&lt;li style=&quot;border-color: var(--border-color);&quot;&gt;count&lt;/li&gt;&lt;li style=&quot;border-color: var(--border-color);&quot;&gt;page&lt;/li&gt;&lt;li style=&quot;border-color: var(--border-color);&quot;&gt;articles: [&lt;/li&gt;&lt;ul style=&quot;border-color: var(--border-color);&quot;&gt;&lt;li style=&quot;border-color: var(--border-color);&quot;&gt;id&lt;/li&gt;&lt;li style=&quot;border-color: var(--border-color);&quot;&gt;title&lt;/li&gt;&lt;li style=&quot;border-color: var(--border-color);&quot;&gt;date&lt;/li&gt;&lt;li style=&quot;border-color: var(--border-color);&quot;&gt;newspaper&lt;/li&gt;&lt;/ul&gt;&lt;li style=&quot;border-color: var(--border-color);&quot;&gt;]&lt;/li&gt;&lt;/ul&gt;" style="shape=document;whiteSpace=wrap;html=1;boundedLbl=1;align=left;spacing=10;fontFamily=Courier New;size=0.1;fillColor=#dae8fc;strokeColor=#6c8ebf;" parent="1" vertex="1">
          <mxGeometry x="1150" y="400" width="190.7" height="170" as="geometry" />
        </mxCell>
        <mxCell id="FMw90j4V7oVWt1J_6NKN-186" style="edgeStyle=orthogonalEdgeStyle;rounded=0;orthogonalLoop=1;jettySize=auto;html=1;exitX=0.5;exitY=1;exitDx=0;exitDy=0;fillColor=#f5f5f5;strokeColor=#666666;" parent="1" source="FMw90j4V7oVWt1J_6NKN-181" target="FMw90j4V7oVWt1J_6NKN-184" edge="1">
          <mxGeometry relative="1" as="geometry" />
        </mxCell>
        <mxCell id="FMw90j4V7oVWt1J_6NKN-181" value="&lt;font face=&quot;Courier New&quot;&gt;/wordcloud/&lt;br&gt;&lt;br&gt;Params:&lt;br&gt;&lt;ul&gt;&lt;li&gt;&lt;b&gt;newspaper&lt;/b&gt;&lt;/li&gt;&lt;li&gt;&lt;b&gt;startDate&lt;/b&gt;&lt;/li&gt;&lt;li&gt;&lt;b&gt;endDate&lt;/b&gt;&lt;/li&gt;&lt;li&gt;&lt;b&gt;field&lt;/b&gt;: (title | description | content)&lt;/li&gt;&lt;li&gt;author&lt;/li&gt;&lt;li&gt;category&lt;/li&gt;&lt;/ul&gt;&lt;/font&gt;" style="rounded=1;whiteSpace=wrap;html=1;align=left;horizontal=1;verticalAlign=top;spacing=10;fillColor=#f5f5f5;strokeColor=#666666;fontColor=#333333;" parent="1" vertex="1">
          <mxGeometry x="1400" y="220" width="170" height="200" as="geometry" />
        </mxCell>
        <mxCell id="FMw90j4V7oVWt1J_6NKN-185" style="edgeStyle=orthogonalEdgeStyle;rounded=0;orthogonalLoop=1;jettySize=auto;html=1;exitX=0.5;exitY=1;exitDx=0;exitDy=0;fillColor=#f5f5f5;strokeColor=#666666;" parent="1" source="FMw90j4V7oVWt1J_6NKN-182" target="FMw90j4V7oVWt1J_6NKN-181" edge="1">
          <mxGeometry relative="1" as="geometry" />
        </mxCell>
        <mxCell id="FMw90j4V7oVWt1J_6NKN-182" value="/charts" style="rounded=1;whiteSpace=wrap;fontFamily=Courier New;fillColor=#f5f5f5;strokeColor=#666666;fontColor=#333333;" parent="1" vertex="1">
          <mxGeometry x="1450" y="155" width="70" height="30" as="geometry" />
        </mxCell>
        <mxCell id="FMw90j4V7oVWt1J_6NKN-184" value="object:&lt;br&gt;&lt;ul&gt;&lt;li style=&quot;border-color: var(--border-color);&quot;&gt;timeToGenerate&lt;/li&gt;&lt;li style=&quot;border-color: var(--border-color);&quot;&gt;dateTime&lt;/li&gt;&lt;li style=&quot;border-color: var(--border-color);&quot;&gt;image&lt;/li&gt;&lt;/ul&gt;" style="shape=document;whiteSpace=wrap;html=1;boundedLbl=1;align=left;spacing=10;fontFamily=Courier New;size=0.1;fillColor=#f5f5f5;strokeColor=#666666;fontColor=#333333;" parent="1" vertex="1">
          <mxGeometry x="1390" y="450.25" width="190" height="109.75" as="geometry" />
        </mxCell>
        <mxCell id="FMw90j4V7oVWt1J_6NKN-187" value="&lt;font face=&quot;Courier New&quot;&gt;/.../&lt;br&gt;&lt;br&gt;Params:&lt;br&gt;&lt;/font&gt;" style="rounded=1;whiteSpace=wrap;html=1;align=left;horizontal=1;verticalAlign=top;spacing=10;fillColor=#f5f5f5;strokeColor=#666666;fontColor=#333333;" parent="1" vertex="1">
          <mxGeometry x="1400" y="590" width="170" height="200" as="geometry" />
        </mxCell>
      </root>
    </mxGraphModel>
  </diagram>
  <diagram id="mbmenafactHqgc1QEl-8" name="db">
    <mxGraphModel dx="1434" dy="754" grid="1" gridSize="10" guides="1" tooltips="1" connect="1" arrows="1" fold="1" page="1" pageScale="1" pageWidth="850" pageHeight="1100" math="0" shadow="0">
      <root>
        <mxCell id="0" />
        <mxCell id="1" parent="0" />
        <mxCell id="jQ6IvkMyWI3WrPZvhZO2-1" value="newspapers" style="shape=table;startSize=30;container=1;collapsible=1;childLayout=tableLayout;fixedRows=1;rowLines=0;fontStyle=1;align=center;resizeLast=1;html=1;" parent="1" vertex="1">
          <mxGeometry x="140" y="280" width="180" height="150" as="geometry" />
        </mxCell>
        <mxCell id="jQ6IvkMyWI3WrPZvhZO2-2" value="" style="shape=tableRow;horizontal=0;startSize=0;swimlaneHead=0;swimlaneBody=0;fillColor=none;collapsible=0;dropTarget=0;points=[[0,0.5],[1,0.5]];portConstraint=eastwest;top=0;left=0;right=0;bottom=1;" parent="jQ6IvkMyWI3WrPZvhZO2-1" vertex="1">
          <mxGeometry y="30" width="180" height="30" as="geometry" />
        </mxCell>
        <mxCell id="jQ6IvkMyWI3WrPZvhZO2-3" value="PK" style="shape=partialRectangle;connectable=0;fillColor=none;top=0;left=0;bottom=0;right=0;fontStyle=1;overflow=hidden;whiteSpace=wrap;html=1;" parent="jQ6IvkMyWI3WrPZvhZO2-2" vertex="1">
          <mxGeometry width="30" height="30" as="geometry">
            <mxRectangle width="30" height="30" as="alternateBounds" />
          </mxGeometry>
        </mxCell>
        <mxCell id="jQ6IvkMyWI3WrPZvhZO2-4" value="id" style="shape=partialRectangle;connectable=0;fillColor=none;top=0;left=0;bottom=0;right=0;align=left;spacingLeft=6;fontStyle=5;overflow=hidden;whiteSpace=wrap;html=1;" parent="jQ6IvkMyWI3WrPZvhZO2-2" vertex="1">
          <mxGeometry x="30" width="150" height="30" as="geometry">
            <mxRectangle width="150" height="30" as="alternateBounds" />
          </mxGeometry>
        </mxCell>
        <mxCell id="jQ6IvkMyWI3WrPZvhZO2-5" value="" style="shape=tableRow;horizontal=0;startSize=0;swimlaneHead=0;swimlaneBody=0;fillColor=none;collapsible=0;dropTarget=0;points=[[0,0.5],[1,0.5]];portConstraint=eastwest;top=0;left=0;right=0;bottom=0;" parent="jQ6IvkMyWI3WrPZvhZO2-1" vertex="1">
          <mxGeometry y="60" width="180" height="30" as="geometry" />
        </mxCell>
        <mxCell id="jQ6IvkMyWI3WrPZvhZO2-6" value="text" style="shape=partialRectangle;connectable=0;fillColor=none;top=0;left=0;bottom=0;right=0;editable=1;overflow=hidden;whiteSpace=wrap;html=1;" parent="jQ6IvkMyWI3WrPZvhZO2-5" vertex="1">
          <mxGeometry width="30" height="30" as="geometry">
            <mxRectangle width="30" height="30" as="alternateBounds" />
          </mxGeometry>
        </mxCell>
        <mxCell id="jQ6IvkMyWI3WrPZvhZO2-7" value="name" style="shape=partialRectangle;connectable=0;fillColor=none;top=0;left=0;bottom=0;right=0;align=left;spacingLeft=6;overflow=hidden;whiteSpace=wrap;html=1;" parent="jQ6IvkMyWI3WrPZvhZO2-5" vertex="1">
          <mxGeometry x="30" width="150" height="30" as="geometry">
            <mxRectangle width="150" height="30" as="alternateBounds" />
          </mxGeometry>
        </mxCell>
        <mxCell id="jQ6IvkMyWI3WrPZvhZO2-8" value="" style="shape=tableRow;horizontal=0;startSize=0;swimlaneHead=0;swimlaneBody=0;fillColor=none;collapsible=0;dropTarget=0;points=[[0,0.5],[1,0.5]];portConstraint=eastwest;top=0;left=0;right=0;bottom=0;" parent="jQ6IvkMyWI3WrPZvhZO2-1" vertex="1">
          <mxGeometry y="90" width="180" height="30" as="geometry" />
        </mxCell>
        <mxCell id="jQ6IvkMyWI3WrPZvhZO2-9" value="date" style="shape=partialRectangle;connectable=0;fillColor=none;top=0;left=0;bottom=0;right=0;editable=1;overflow=hidden;whiteSpace=wrap;html=1;" parent="jQ6IvkMyWI3WrPZvhZO2-8" vertex="1">
          <mxGeometry width="30" height="30" as="geometry">
            <mxRectangle width="30" height="30" as="alternateBounds" />
          </mxGeometry>
        </mxCell>
        <mxCell id="jQ6IvkMyWI3WrPZvhZO2-10" value="min_date" style="shape=partialRectangle;connectable=0;fillColor=none;top=0;left=0;bottom=0;right=0;align=left;spacingLeft=6;overflow=hidden;whiteSpace=wrap;html=1;" parent="jQ6IvkMyWI3WrPZvhZO2-8" vertex="1">
          <mxGeometry x="30" width="150" height="30" as="geometry">
            <mxRectangle width="150" height="30" as="alternateBounds" />
          </mxGeometry>
        </mxCell>
        <mxCell id="jQ6IvkMyWI3WrPZvhZO2-11" value="" style="shape=tableRow;horizontal=0;startSize=0;swimlaneHead=0;swimlaneBody=0;fillColor=none;collapsible=0;dropTarget=0;points=[[0,0.5],[1,0.5]];portConstraint=eastwest;top=0;left=0;right=0;bottom=0;" parent="jQ6IvkMyWI3WrPZvhZO2-1" vertex="1">
          <mxGeometry y="120" width="180" height="30" as="geometry" />
        </mxCell>
        <mxCell id="jQ6IvkMyWI3WrPZvhZO2-12" value="date" style="shape=partialRectangle;connectable=0;fillColor=none;top=0;left=0;bottom=0;right=0;editable=1;overflow=hidden;whiteSpace=wrap;html=1;" parent="jQ6IvkMyWI3WrPZvhZO2-11" vertex="1">
          <mxGeometry width="30" height="30" as="geometry">
            <mxRectangle width="30" height="30" as="alternateBounds" />
          </mxGeometry>
        </mxCell>
        <mxCell id="jQ6IvkMyWI3WrPZvhZO2-13" value="max_date" style="shape=partialRectangle;connectable=0;fillColor=none;top=0;left=0;bottom=0;right=0;align=left;spacingLeft=6;overflow=hidden;whiteSpace=wrap;html=1;" parent="jQ6IvkMyWI3WrPZvhZO2-11" vertex="1">
          <mxGeometry x="30" width="150" height="30" as="geometry">
            <mxRectangle width="150" height="30" as="alternateBounds" />
          </mxGeometry>
        </mxCell>
        <mxCell id="NmIV5_h3FrnaBVL7MIBD-1" value="articles" style="shape=table;startSize=30;container=1;collapsible=1;childLayout=tableLayout;fixedRows=1;rowLines=0;fontStyle=1;align=center;resizeLast=1;html=1;" parent="1" vertex="1">
          <mxGeometry x="440" y="70" width="180" height="270" as="geometry" />
        </mxCell>
        <mxCell id="NmIV5_h3FrnaBVL7MIBD-2" value="" style="shape=tableRow;horizontal=0;startSize=0;swimlaneHead=0;swimlaneBody=0;fillColor=none;collapsible=0;dropTarget=0;points=[[0,0.5],[1,0.5]];portConstraint=eastwest;top=0;left=0;right=0;bottom=1;" parent="NmIV5_h3FrnaBVL7MIBD-1" vertex="1">
          <mxGeometry y="30" width="180" height="30" as="geometry" />
        </mxCell>
        <mxCell id="NmIV5_h3FrnaBVL7MIBD-3" value="PK" style="shape=partialRectangle;connectable=0;fillColor=none;top=0;left=0;bottom=0;right=0;fontStyle=1;overflow=hidden;whiteSpace=wrap;html=1;" parent="NmIV5_h3FrnaBVL7MIBD-2" vertex="1">
          <mxGeometry width="40" height="30" as="geometry">
            <mxRectangle width="40" height="30" as="alternateBounds" />
          </mxGeometry>
        </mxCell>
        <mxCell id="NmIV5_h3FrnaBVL7MIBD-4" value="id" style="shape=partialRectangle;connectable=0;fillColor=none;top=0;left=0;bottom=0;right=0;align=left;spacingLeft=6;fontStyle=5;overflow=hidden;whiteSpace=wrap;html=1;" parent="NmIV5_h3FrnaBVL7MIBD-2" vertex="1">
          <mxGeometry x="40" width="140" height="30" as="geometry">
            <mxRectangle width="140" height="30" as="alternateBounds" />
          </mxGeometry>
        </mxCell>
        <mxCell id="NmIV5_h3FrnaBVL7MIBD-5" value="" style="shape=tableRow;horizontal=0;startSize=0;swimlaneHead=0;swimlaneBody=0;fillColor=none;collapsible=0;dropTarget=0;points=[[0,0.5],[1,0.5]];portConstraint=eastwest;top=0;left=0;right=0;bottom=0;" parent="NmIV5_h3FrnaBVL7MIBD-1" vertex="1">
          <mxGeometry y="60" width="180" height="30" as="geometry" />
        </mxCell>
        <mxCell id="NmIV5_h3FrnaBVL7MIBD-6" value="FK" style="shape=partialRectangle;connectable=0;fillColor=none;top=0;left=0;bottom=0;right=0;editable=1;overflow=hidden;whiteSpace=wrap;html=1;" parent="NmIV5_h3FrnaBVL7MIBD-5" vertex="1">
          <mxGeometry width="40" height="30" as="geometry">
            <mxRectangle width="40" height="30" as="alternateBounds" />
          </mxGeometry>
        </mxCell>
        <mxCell id="NmIV5_h3FrnaBVL7MIBD-7" value="newspaper_id" style="shape=partialRectangle;connectable=0;fillColor=none;top=0;left=0;bottom=0;right=0;align=left;spacingLeft=6;overflow=hidden;whiteSpace=wrap;html=1;" parent="NmIV5_h3FrnaBVL7MIBD-5" vertex="1">
          <mxGeometry x="40" width="140" height="30" as="geometry">
            <mxRectangle width="140" height="30" as="alternateBounds" />
          </mxGeometry>
        </mxCell>
        <mxCell id="NmIV5_h3FrnaBVL7MIBD-8" value="" style="shape=tableRow;horizontal=0;startSize=0;swimlaneHead=0;swimlaneBody=0;fillColor=none;collapsible=0;dropTarget=0;points=[[0,0.5],[1,0.5]];portConstraint=eastwest;top=0;left=0;right=0;bottom=0;" parent="NmIV5_h3FrnaBVL7MIBD-1" vertex="1">
          <mxGeometry y="90" width="180" height="30" as="geometry" />
        </mxCell>
        <mxCell id="NmIV5_h3FrnaBVL7MIBD-9" value="text" style="shape=partialRectangle;connectable=0;fillColor=none;top=0;left=0;bottom=0;right=0;editable=1;overflow=hidden;whiteSpace=wrap;html=1;" parent="NmIV5_h3FrnaBVL7MIBD-8" vertex="1">
          <mxGeometry width="40" height="30" as="geometry">
            <mxRectangle width="40" height="30" as="alternateBounds" />
          </mxGeometry>
        </mxCell>
        <mxCell id="NmIV5_h3FrnaBVL7MIBD-10" value="title" style="shape=partialRectangle;connectable=0;fillColor=none;top=0;left=0;bottom=0;right=0;align=left;spacingLeft=6;overflow=hidden;whiteSpace=wrap;html=1;" parent="NmIV5_h3FrnaBVL7MIBD-8" vertex="1">
          <mxGeometry x="40" width="140" height="30" as="geometry">
            <mxRectangle width="140" height="30" as="alternateBounds" />
          </mxGeometry>
        </mxCell>
        <mxCell id="NmIV5_h3FrnaBVL7MIBD-11" value="" style="shape=tableRow;horizontal=0;startSize=0;swimlaneHead=0;swimlaneBody=0;fillColor=none;collapsible=0;dropTarget=0;points=[[0,0.5],[1,0.5]];portConstraint=eastwest;top=0;left=0;right=0;bottom=0;" parent="NmIV5_h3FrnaBVL7MIBD-1" vertex="1">
          <mxGeometry y="120" width="180" height="30" as="geometry" />
        </mxCell>
        <mxCell id="NmIV5_h3FrnaBVL7MIBD-12" value="text" style="shape=partialRectangle;connectable=0;fillColor=none;top=0;left=0;bottom=0;right=0;editable=1;overflow=hidden;whiteSpace=wrap;html=1;" parent="NmIV5_h3FrnaBVL7MIBD-11" vertex="1">
          <mxGeometry width="40" height="30" as="geometry">
            <mxRectangle width="40" height="30" as="alternateBounds" />
          </mxGeometry>
        </mxCell>
        <mxCell id="NmIV5_h3FrnaBVL7MIBD-13" value="description" style="shape=partialRectangle;connectable=0;fillColor=none;top=0;left=0;bottom=0;right=0;align=left;spacingLeft=6;overflow=hidden;whiteSpace=wrap;html=1;" parent="NmIV5_h3FrnaBVL7MIBD-11" vertex="1">
          <mxGeometry x="40" width="140" height="30" as="geometry">
            <mxRectangle width="140" height="30" as="alternateBounds" />
          </mxGeometry>
        </mxCell>
        <mxCell id="NmIV5_h3FrnaBVL7MIBD-14" value="" style="shape=tableRow;horizontal=0;startSize=0;swimlaneHead=0;swimlaneBody=0;fillColor=none;collapsible=0;dropTarget=0;points=[[0,0.5],[1,0.5]];portConstraint=eastwest;top=0;left=0;right=0;bottom=0;" parent="NmIV5_h3FrnaBVL7MIBD-1" vertex="1">
          <mxGeometry y="150" width="180" height="30" as="geometry" />
        </mxCell>
        <mxCell id="NmIV5_h3FrnaBVL7MIBD-15" value="text" style="shape=partialRectangle;connectable=0;fillColor=none;top=0;left=0;bottom=0;right=0;editable=1;overflow=hidden;whiteSpace=wrap;html=1;" parent="NmIV5_h3FrnaBVL7MIBD-14" vertex="1">
          <mxGeometry width="40" height="30" as="geometry">
            <mxRectangle width="40" height="30" as="alternateBounds" />
          </mxGeometry>
        </mxCell>
        <mxCell id="NmIV5_h3FrnaBVL7MIBD-16" value="url" style="shape=partialRectangle;connectable=0;fillColor=none;top=0;left=0;bottom=0;right=0;align=left;spacingLeft=6;overflow=hidden;whiteSpace=wrap;html=1;" parent="NmIV5_h3FrnaBVL7MIBD-14" vertex="1">
          <mxGeometry x="40" width="140" height="30" as="geometry">
            <mxRectangle width="140" height="30" as="alternateBounds" />
          </mxGeometry>
        </mxCell>
        <mxCell id="NmIV5_h3FrnaBVL7MIBD-17" value="" style="shape=tableRow;horizontal=0;startSize=0;swimlaneHead=0;swimlaneBody=0;fillColor=none;collapsible=0;dropTarget=0;points=[[0,0.5],[1,0.5]];portConstraint=eastwest;top=0;left=0;right=0;bottom=0;" parent="NmIV5_h3FrnaBVL7MIBD-1" vertex="1">
          <mxGeometry y="180" width="180" height="30" as="geometry" />
        </mxCell>
        <mxCell id="NmIV5_h3FrnaBVL7MIBD-18" value="text" style="shape=partialRectangle;connectable=0;fillColor=none;top=0;left=0;bottom=0;right=0;editable=1;overflow=hidden;whiteSpace=wrap;html=1;" parent="NmIV5_h3FrnaBVL7MIBD-17" vertex="1">
          <mxGeometry width="40" height="30" as="geometry">
            <mxRectangle width="40" height="30" as="alternateBounds" />
          </mxGeometry>
        </mxCell>
        <mxCell id="NmIV5_h3FrnaBVL7MIBD-19" value="content" style="shape=partialRectangle;connectable=0;fillColor=none;top=0;left=0;bottom=0;right=0;align=left;spacingLeft=6;overflow=hidden;whiteSpace=wrap;html=1;" parent="NmIV5_h3FrnaBVL7MIBD-17" vertex="1">
          <mxGeometry x="40" width="140" height="30" as="geometry">
            <mxRectangle width="140" height="30" as="alternateBounds" />
          </mxGeometry>
        </mxCell>
        <mxCell id="NmIV5_h3FrnaBVL7MIBD-20" value="" style="shape=tableRow;horizontal=0;startSize=0;swimlaneHead=0;swimlaneBody=0;fillColor=none;collapsible=0;dropTarget=0;points=[[0,0.5],[1,0.5]];portConstraint=eastwest;top=0;left=0;right=0;bottom=0;" parent="NmIV5_h3FrnaBVL7MIBD-1" vertex="1">
          <mxGeometry y="210" width="180" height="30" as="geometry" />
        </mxCell>
        <mxCell id="NmIV5_h3FrnaBVL7MIBD-21" value="date" style="shape=partialRectangle;connectable=0;fillColor=none;top=0;left=0;bottom=0;right=0;editable=1;overflow=hidden;whiteSpace=wrap;html=1;" parent="NmIV5_h3FrnaBVL7MIBD-20" vertex="1">
          <mxGeometry width="40" height="30" as="geometry">
            <mxRectangle width="40" height="30" as="alternateBounds" />
          </mxGeometry>
        </mxCell>
        <mxCell id="NmIV5_h3FrnaBVL7MIBD-22" value="date_created" style="shape=partialRectangle;connectable=0;fillColor=none;top=0;left=0;bottom=0;right=0;align=left;spacingLeft=6;overflow=hidden;whiteSpace=wrap;html=1;" parent="NmIV5_h3FrnaBVL7MIBD-20" vertex="1">
          <mxGeometry x="40" width="140" height="30" as="geometry">
            <mxRectangle width="140" height="30" as="alternateBounds" />
          </mxGeometry>
        </mxCell>
        <mxCell id="NmIV5_h3FrnaBVL7MIBD-24" value="" style="shape=tableRow;horizontal=0;startSize=0;swimlaneHead=0;swimlaneBody=0;fillColor=none;collapsible=0;dropTarget=0;points=[[0,0.5],[1,0.5]];portConstraint=eastwest;top=0;left=0;right=0;bottom=0;" parent="NmIV5_h3FrnaBVL7MIBD-1" vertex="1">
          <mxGeometry y="240" width="180" height="30" as="geometry" />
        </mxCell>
        <mxCell id="NmIV5_h3FrnaBVL7MIBD-25" value="date" style="shape=partialRectangle;connectable=0;fillColor=none;top=0;left=0;bottom=0;right=0;editable=1;overflow=hidden;whiteSpace=wrap;html=1;" parent="NmIV5_h3FrnaBVL7MIBD-24" vertex="1">
          <mxGeometry width="40" height="30" as="geometry">
            <mxRectangle width="40" height="30" as="alternateBounds" />
          </mxGeometry>
        </mxCell>
        <mxCell id="NmIV5_h3FrnaBVL7MIBD-26" value="date_obtained" style="shape=partialRectangle;connectable=0;fillColor=none;top=0;left=0;bottom=0;right=0;align=left;spacingLeft=6;overflow=hidden;whiteSpace=wrap;html=1;" parent="NmIV5_h3FrnaBVL7MIBD-24" vertex="1">
          <mxGeometry x="40" width="140" height="30" as="geometry">
            <mxRectangle width="140" height="30" as="alternateBounds" />
          </mxGeometry>
        </mxCell>
        <mxCell id="NmIV5_h3FrnaBVL7MIBD-33" value="" style="edgeStyle=entityRelationEdgeStyle;fontSize=12;html=1;endArrow=ERoneToMany;rounded=0;exitX=1;exitY=0.5;exitDx=0;exitDy=0;entryX=0;entryY=0.5;entryDx=0;entryDy=0;" parent="1" source="jQ6IvkMyWI3WrPZvhZO2-2" target="NmIV5_h3FrnaBVL7MIBD-5" edge="1">
          <mxGeometry width="100" height="100" relative="1" as="geometry">
            <mxPoint x="310" y="410" as="sourcePoint" />
            <mxPoint x="410" y="310" as="targetPoint" />
          </mxGeometry>
        </mxCell>
        <mxCell id="NmIV5_h3FrnaBVL7MIBD-34" value="categories" style="shape=table;startSize=30;container=1;collapsible=1;childLayout=tableLayout;fixedRows=1;rowLines=0;fontStyle=1;align=center;resizeLast=1;html=1;" parent="1" vertex="1">
          <mxGeometry x="770" y="190" width="180" height="150" as="geometry" />
        </mxCell>
        <mxCell id="NmIV5_h3FrnaBVL7MIBD-35" value="" style="shape=tableRow;horizontal=0;startSize=0;swimlaneHead=0;swimlaneBody=0;fillColor=none;collapsible=0;dropTarget=0;points=[[0,0.5],[1,0.5]];portConstraint=eastwest;top=0;left=0;right=0;bottom=1;" parent="NmIV5_h3FrnaBVL7MIBD-34" vertex="1">
          <mxGeometry y="30" width="180" height="30" as="geometry" />
        </mxCell>
        <mxCell id="NmIV5_h3FrnaBVL7MIBD-36" value="PK" style="shape=partialRectangle;connectable=0;fillColor=none;top=0;left=0;bottom=0;right=0;fontStyle=1;overflow=hidden;whiteSpace=wrap;html=1;" parent="NmIV5_h3FrnaBVL7MIBD-35" vertex="1">
          <mxGeometry width="30" height="30" as="geometry">
            <mxRectangle width="30" height="30" as="alternateBounds" />
          </mxGeometry>
        </mxCell>
        <mxCell id="NmIV5_h3FrnaBVL7MIBD-37" value="id" style="shape=partialRectangle;connectable=0;fillColor=none;top=0;left=0;bottom=0;right=0;align=left;spacingLeft=6;fontStyle=5;overflow=hidden;whiteSpace=wrap;html=1;" parent="NmIV5_h3FrnaBVL7MIBD-35" vertex="1">
          <mxGeometry x="30" width="150" height="30" as="geometry">
            <mxRectangle width="150" height="30" as="alternateBounds" />
          </mxGeometry>
        </mxCell>
        <mxCell id="NmIV5_h3FrnaBVL7MIBD-38" value="" style="shape=tableRow;horizontal=0;startSize=0;swimlaneHead=0;swimlaneBody=0;fillColor=none;collapsible=0;dropTarget=0;points=[[0,0.5],[1,0.5]];portConstraint=eastwest;top=0;left=0;right=0;bottom=0;" parent="NmIV5_h3FrnaBVL7MIBD-34" vertex="1">
          <mxGeometry y="60" width="180" height="30" as="geometry" />
        </mxCell>
        <mxCell id="NmIV5_h3FrnaBVL7MIBD-39" value="FK" style="shape=partialRectangle;connectable=0;fillColor=none;top=0;left=0;bottom=0;right=0;editable=1;overflow=hidden;whiteSpace=wrap;html=1;" parent="NmIV5_h3FrnaBVL7MIBD-38" vertex="1">
          <mxGeometry width="30" height="30" as="geometry">
            <mxRectangle width="30" height="30" as="alternateBounds" />
          </mxGeometry>
        </mxCell>
        <mxCell id="NmIV5_h3FrnaBVL7MIBD-40" value="article_id" style="shape=partialRectangle;connectable=0;fillColor=none;top=0;left=0;bottom=0;right=0;align=left;spacingLeft=6;overflow=hidden;whiteSpace=wrap;html=1;" parent="NmIV5_h3FrnaBVL7MIBD-38" vertex="1">
          <mxGeometry x="30" width="150" height="30" as="geometry">
            <mxRectangle width="150" height="30" as="alternateBounds" />
          </mxGeometry>
        </mxCell>
        <mxCell id="Q7ZQueMM4rIe5zY6Vt_k-11" value="" style="shape=tableRow;horizontal=0;startSize=0;swimlaneHead=0;swimlaneBody=0;fillColor=none;collapsible=0;dropTarget=0;points=[[0,0.5],[1,0.5]];portConstraint=eastwest;top=0;left=0;right=0;bottom=0;" parent="NmIV5_h3FrnaBVL7MIBD-34" vertex="1">
          <mxGeometry y="90" width="180" height="30" as="geometry" />
        </mxCell>
        <mxCell id="Q7ZQueMM4rIe5zY6Vt_k-12" value="FK" style="shape=partialRectangle;connectable=0;fillColor=none;top=0;left=0;bottom=0;right=0;editable=1;overflow=hidden;whiteSpace=wrap;html=1;" parent="Q7ZQueMM4rIe5zY6Vt_k-11" vertex="1">
          <mxGeometry width="30" height="30" as="geometry">
            <mxRectangle width="30" height="30" as="alternateBounds" />
          </mxGeometry>
        </mxCell>
        <mxCell id="Q7ZQueMM4rIe5zY6Vt_k-13" value="newspaper_id" style="shape=partialRectangle;connectable=0;fillColor=none;top=0;left=0;bottom=0;right=0;align=left;spacingLeft=6;overflow=hidden;whiteSpace=wrap;html=1;" parent="Q7ZQueMM4rIe5zY6Vt_k-11" vertex="1">
          <mxGeometry x="30" width="150" height="30" as="geometry">
            <mxRectangle width="150" height="30" as="alternateBounds" />
          </mxGeometry>
        </mxCell>
        <mxCell id="NmIV5_h3FrnaBVL7MIBD-41" value="" style="shape=tableRow;horizontal=0;startSize=0;swimlaneHead=0;swimlaneBody=0;fillColor=none;collapsible=0;dropTarget=0;points=[[0,0.5],[1,0.5]];portConstraint=eastwest;top=0;left=0;right=0;bottom=0;" parent="NmIV5_h3FrnaBVL7MIBD-34" vertex="1">
          <mxGeometry y="120" width="180" height="30" as="geometry" />
        </mxCell>
        <mxCell id="NmIV5_h3FrnaBVL7MIBD-42" value="text" style="shape=partialRectangle;connectable=0;fillColor=none;top=0;left=0;bottom=0;right=0;editable=1;overflow=hidden;whiteSpace=wrap;html=1;" parent="NmIV5_h3FrnaBVL7MIBD-41" vertex="1">
          <mxGeometry width="30" height="30" as="geometry">
            <mxRectangle width="30" height="30" as="alternateBounds" />
          </mxGeometry>
        </mxCell>
        <mxCell id="NmIV5_h3FrnaBVL7MIBD-43" value="name" style="shape=partialRectangle;connectable=0;fillColor=none;top=0;left=0;bottom=0;right=0;align=left;spacingLeft=6;overflow=hidden;whiteSpace=wrap;html=1;" parent="NmIV5_h3FrnaBVL7MIBD-41" vertex="1">
          <mxGeometry x="30" width="150" height="30" as="geometry">
            <mxRectangle width="150" height="30" as="alternateBounds" />
          </mxGeometry>
        </mxCell>
        <mxCell id="DrXh-l9nkK2nXS3yFvxM-1" value="" style="edgeStyle=entityRelationEdgeStyle;fontSize=12;html=1;endArrow=ERoneToMany;rounded=0;entryX=0;entryY=0.5;entryDx=0;entryDy=0;" parent="1" source="NmIV5_h3FrnaBVL7MIBD-2" target="NmIV5_h3FrnaBVL7MIBD-38" edge="1">
          <mxGeometry width="100" height="100" relative="1" as="geometry">
            <mxPoint x="650" y="370" as="sourcePoint" />
            <mxPoint x="750" y="270" as="targetPoint" />
          </mxGeometry>
        </mxCell>
        <mxCell id="DrXh-l9nkK2nXS3yFvxM-2" value="authors" style="shape=table;startSize=30;container=1;collapsible=1;childLayout=tableLayout;fixedRows=1;rowLines=0;fontStyle=1;align=center;resizeLast=1;html=1;" parent="1" vertex="1">
          <mxGeometry x="770" y="50" width="180" height="120" as="geometry" />
        </mxCell>
        <mxCell id="DrXh-l9nkK2nXS3yFvxM-3" value="" style="shape=tableRow;horizontal=0;startSize=0;swimlaneHead=0;swimlaneBody=0;fillColor=none;collapsible=0;dropTarget=0;points=[[0,0.5],[1,0.5]];portConstraint=eastwest;top=0;left=0;right=0;bottom=1;" parent="DrXh-l9nkK2nXS3yFvxM-2" vertex="1">
          <mxGeometry y="30" width="180" height="30" as="geometry" />
        </mxCell>
        <mxCell id="DrXh-l9nkK2nXS3yFvxM-4" value="PK" style="shape=partialRectangle;connectable=0;fillColor=none;top=0;left=0;bottom=0;right=0;fontStyle=1;overflow=hidden;whiteSpace=wrap;html=1;" parent="DrXh-l9nkK2nXS3yFvxM-3" vertex="1">
          <mxGeometry width="30" height="30" as="geometry">
            <mxRectangle width="30" height="30" as="alternateBounds" />
          </mxGeometry>
        </mxCell>
        <mxCell id="DrXh-l9nkK2nXS3yFvxM-5" value="id" style="shape=partialRectangle;connectable=0;fillColor=none;top=0;left=0;bottom=0;right=0;align=left;spacingLeft=6;fontStyle=5;overflow=hidden;whiteSpace=wrap;html=1;" parent="DrXh-l9nkK2nXS3yFvxM-3" vertex="1">
          <mxGeometry x="30" width="150" height="30" as="geometry">
            <mxRectangle width="150" height="30" as="alternateBounds" />
          </mxGeometry>
        </mxCell>
        <mxCell id="DrXh-l9nkK2nXS3yFvxM-6" value="" style="shape=tableRow;horizontal=0;startSize=0;swimlaneHead=0;swimlaneBody=0;fillColor=none;collapsible=0;dropTarget=0;points=[[0,0.5],[1,0.5]];portConstraint=eastwest;top=0;left=0;right=0;bottom=0;" parent="DrXh-l9nkK2nXS3yFvxM-2" vertex="1">
          <mxGeometry y="60" width="180" height="30" as="geometry" />
        </mxCell>
        <mxCell id="DrXh-l9nkK2nXS3yFvxM-7" value="FK" style="shape=partialRectangle;connectable=0;fillColor=none;top=0;left=0;bottom=0;right=0;editable=1;overflow=hidden;whiteSpace=wrap;html=1;" parent="DrXh-l9nkK2nXS3yFvxM-6" vertex="1">
          <mxGeometry width="30" height="30" as="geometry">
            <mxRectangle width="30" height="30" as="alternateBounds" />
          </mxGeometry>
        </mxCell>
        <mxCell id="DrXh-l9nkK2nXS3yFvxM-8" value="article_id" style="shape=partialRectangle;connectable=0;fillColor=none;top=0;left=0;bottom=0;right=0;align=left;spacingLeft=6;overflow=hidden;whiteSpace=wrap;html=1;" parent="DrXh-l9nkK2nXS3yFvxM-6" vertex="1">
          <mxGeometry x="30" width="150" height="30" as="geometry">
            <mxRectangle width="150" height="30" as="alternateBounds" />
          </mxGeometry>
        </mxCell>
        <mxCell id="DrXh-l9nkK2nXS3yFvxM-9" value="" style="shape=tableRow;horizontal=0;startSize=0;swimlaneHead=0;swimlaneBody=0;fillColor=none;collapsible=0;dropTarget=0;points=[[0,0.5],[1,0.5]];portConstraint=eastwest;top=0;left=0;right=0;bottom=0;" parent="DrXh-l9nkK2nXS3yFvxM-2" vertex="1">
          <mxGeometry y="90" width="180" height="30" as="geometry" />
        </mxCell>
        <mxCell id="DrXh-l9nkK2nXS3yFvxM-10" value="text" style="shape=partialRectangle;connectable=0;fillColor=none;top=0;left=0;bottom=0;right=0;editable=1;overflow=hidden;whiteSpace=wrap;html=1;" parent="DrXh-l9nkK2nXS3yFvxM-9" vertex="1">
          <mxGeometry width="30" height="30" as="geometry">
            <mxRectangle width="30" height="30" as="alternateBounds" />
          </mxGeometry>
        </mxCell>
        <mxCell id="DrXh-l9nkK2nXS3yFvxM-11" value="author" style="shape=partialRectangle;connectable=0;fillColor=none;top=0;left=0;bottom=0;right=0;align=left;spacingLeft=6;overflow=hidden;whiteSpace=wrap;html=1;" parent="DrXh-l9nkK2nXS3yFvxM-9" vertex="1">
          <mxGeometry x="30" width="150" height="30" as="geometry">
            <mxRectangle width="150" height="30" as="alternateBounds" />
          </mxGeometry>
        </mxCell>
        <mxCell id="DrXh-l9nkK2nXS3yFvxM-14" value="" style="edgeStyle=entityRelationEdgeStyle;fontSize=12;html=1;endArrow=ERmany;rounded=0;entryX=0;entryY=0.5;entryDx=0;entryDy=0;" parent="1" source="NmIV5_h3FrnaBVL7MIBD-2" target="DrXh-l9nkK2nXS3yFvxM-3" edge="1">
          <mxGeometry width="100" height="100" relative="1" as="geometry">
            <mxPoint x="370" y="440" as="sourcePoint" />
            <mxPoint x="470" y="340" as="targetPoint" />
          </mxGeometry>
        </mxCell>
        <mxCell id="Q7ZQueMM4rIe5zY6Vt_k-1" value="news_agencies" style="shape=table;startSize=30;container=1;collapsible=1;childLayout=tableLayout;fixedRows=1;rowLines=0;fontStyle=1;align=center;resizeLast=1;html=1;" parent="1" vertex="1">
          <mxGeometry x="770" y="379" width="180" height="120" as="geometry" />
        </mxCell>
        <mxCell id="Q7ZQueMM4rIe5zY6Vt_k-2" value="" style="shape=tableRow;horizontal=0;startSize=0;swimlaneHead=0;swimlaneBody=0;fillColor=none;collapsible=0;dropTarget=0;points=[[0,0.5],[1,0.5]];portConstraint=eastwest;top=0;left=0;right=0;bottom=1;" parent="Q7ZQueMM4rIe5zY6Vt_k-1" vertex="1">
          <mxGeometry y="30" width="180" height="30" as="geometry" />
        </mxCell>
        <mxCell id="Q7ZQueMM4rIe5zY6Vt_k-3" value="PK" style="shape=partialRectangle;connectable=0;fillColor=none;top=0;left=0;bottom=0;right=0;fontStyle=1;overflow=hidden;whiteSpace=wrap;html=1;" parent="Q7ZQueMM4rIe5zY6Vt_k-2" vertex="1">
          <mxGeometry width="30" height="30" as="geometry">
            <mxRectangle width="30" height="30" as="alternateBounds" />
          </mxGeometry>
        </mxCell>
        <mxCell id="Q7ZQueMM4rIe5zY6Vt_k-4" value="id" style="shape=partialRectangle;connectable=0;fillColor=none;top=0;left=0;bottom=0;right=0;align=left;spacingLeft=6;fontStyle=5;overflow=hidden;whiteSpace=wrap;html=1;" parent="Q7ZQueMM4rIe5zY6Vt_k-2" vertex="1">
          <mxGeometry x="30" width="150" height="30" as="geometry">
            <mxRectangle width="150" height="30" as="alternateBounds" />
          </mxGeometry>
        </mxCell>
        <mxCell id="Q7ZQueMM4rIe5zY6Vt_k-16" value="" style="shape=tableRow;horizontal=0;startSize=0;swimlaneHead=0;swimlaneBody=0;fillColor=none;collapsible=0;dropTarget=0;points=[[0,0.5],[1,0.5]];portConstraint=eastwest;top=0;left=0;right=0;bottom=0;" parent="Q7ZQueMM4rIe5zY6Vt_k-1" vertex="1">
          <mxGeometry y="60" width="180" height="30" as="geometry" />
        </mxCell>
        <mxCell id="Q7ZQueMM4rIe5zY6Vt_k-17" value="FK" style="shape=partialRectangle;connectable=0;fillColor=none;top=0;left=0;bottom=0;right=0;editable=1;overflow=hidden;whiteSpace=wrap;html=1;" parent="Q7ZQueMM4rIe5zY6Vt_k-16" vertex="1">
          <mxGeometry width="30" height="30" as="geometry">
            <mxRectangle width="30" height="30" as="alternateBounds" />
          </mxGeometry>
        </mxCell>
        <mxCell id="Q7ZQueMM4rIe5zY6Vt_k-18" value="newspaper_id" style="shape=partialRectangle;connectable=0;fillColor=none;top=0;left=0;bottom=0;right=0;align=left;spacingLeft=6;overflow=hidden;whiteSpace=wrap;html=1;" parent="Q7ZQueMM4rIe5zY6Vt_k-16" vertex="1">
          <mxGeometry x="30" width="150" height="30" as="geometry">
            <mxRectangle width="150" height="30" as="alternateBounds" />
          </mxGeometry>
        </mxCell>
        <mxCell id="Q7ZQueMM4rIe5zY6Vt_k-8" value="" style="shape=tableRow;horizontal=0;startSize=0;swimlaneHead=0;swimlaneBody=0;fillColor=none;collapsible=0;dropTarget=0;points=[[0,0.5],[1,0.5]];portConstraint=eastwest;top=0;left=0;right=0;bottom=0;" parent="Q7ZQueMM4rIe5zY6Vt_k-1" vertex="1">
          <mxGeometry y="90" width="180" height="30" as="geometry" />
        </mxCell>
        <mxCell id="Q7ZQueMM4rIe5zY6Vt_k-9" value="text" style="shape=partialRectangle;connectable=0;fillColor=none;top=0;left=0;bottom=0;right=0;editable=1;overflow=hidden;whiteSpace=wrap;html=1;" parent="Q7ZQueMM4rIe5zY6Vt_k-8" vertex="1">
          <mxGeometry width="30" height="30" as="geometry">
            <mxRectangle width="30" height="30" as="alternateBounds" />
          </mxGeometry>
        </mxCell>
        <mxCell id="Q7ZQueMM4rIe5zY6Vt_k-10" value="name" style="shape=partialRectangle;connectable=0;fillColor=none;top=0;left=0;bottom=0;right=0;align=left;spacingLeft=6;overflow=hidden;whiteSpace=wrap;html=1;" parent="Q7ZQueMM4rIe5zY6Vt_k-8" vertex="1">
          <mxGeometry x="30" width="150" height="30" as="geometry">
            <mxRectangle width="150" height="30" as="alternateBounds" />
          </mxGeometry>
        </mxCell>
        <mxCell id="Q7ZQueMM4rIe5zY6Vt_k-19" value="" style="edgeStyle=entityRelationEdgeStyle;fontSize=12;html=1;endArrow=ERzeroToMany;startArrow=ERzeroToOne;rounded=0;entryX=0;entryY=0.5;entryDx=0;entryDy=0;exitX=0.989;exitY=0.033;exitDx=0;exitDy=0;exitPerimeter=0;" parent="1" source="NmIV5_h3FrnaBVL7MIBD-5" edge="1">
          <mxGeometry width="100" height="100" relative="1" as="geometry">
            <mxPoint x="570" y="590" as="sourcePoint" />
            <mxPoint x="770" y="454" as="targetPoint" />
          </mxGeometry>
        </mxCell>
        <mxCell id="Q7ZQueMM4rIe5zY6Vt_k-20" value="" style="edgeStyle=orthogonalEdgeStyle;fontSize=12;html=1;endArrow=ERzeroToMany;startArrow=ERzeroToOne;rounded=0;exitX=0.983;exitY=-0.1;exitDx=0;exitDy=0;exitPerimeter=0;entryX=0;entryY=0.5;entryDx=0;entryDy=0;" parent="1" source="jQ6IvkMyWI3WrPZvhZO2-5" target="Q7ZQueMM4rIe5zY6Vt_k-8" edge="1">
          <mxGeometry width="100" height="100" relative="1" as="geometry">
            <mxPoint x="370" y="410" as="sourcePoint" />
            <mxPoint x="620" y="510" as="targetPoint" />
            <Array as="points">
              <mxPoint x="360" y="337" />
              <mxPoint x="360" y="380" />
              <mxPoint x="670" y="380" />
              <mxPoint x="670" y="484" />
            </Array>
          </mxGeometry>
        </mxCell>
      </root>
    </mxGraphModel>
  </diagram>
</mxfile>
